<svg xmlns="http://www.w3.org/2000/svg" viewBox="-0.85 -56.44 377 74.58">
  <defs>
    <linearGradient id="sh16" gradientUnits="userSpaceOnUse" x1="466" y1="207" x2="508" y2="197">
      <stop offset="0%" stop-color="#F9B44C"/>
      <stop offset="100%" stop-color="#FDCC78"/>
    </linearGradient>
    <linearGradient id="sh19" gradientUnits="userSpaceOnUse" x1="481.40" y1="207.88" x2="481.39" y2="201.61">
      <stop offset="0%" stop-color="#E09428"/>
      <stop offset="100%" stop-color="#ECA840"/>
    </linearGradient>
    <linearGradient id="sh22" gradientUnits="userSpaceOnUse" x1="478" y1="235" x2="509" y2="220">
      <stop offset="0%" stop-color="#E8A438"/>
      <stop offset="100%" stop-color="#F4BC58"/>
    </linearGradient>
    <linearGradient id="sh25" gradientUnits="userSpaceOnUse" x1="471" y1="234" x2="509" y2="207">
      <stop offset="0%" stop-color="#F5BC50"/>
      <stop offset="100%" stop-color="#FDDA80"/>
    </linearGradient>
    <filter id="dropShadow" x="-20%" y="-20%" width="150%" height="150%">
      <feDropShadow dx="-1" dy="1.5" stdDeviation="1.5" flood-color="#000000" flood-opacity="0.2"/>
    </filter>
  </defs>
  <!-- "Sticky" — Onest Medium 500, white for dark backgrounds -->
  <path fill="#ffffff" d="M20.3168 0.4752L20.3168 0.4752Q16.2178 0.4752 12.5941-0.7129Q8.9703-1.9010 6.4752-4.5743Q3.9802-7.2475 3.1485-11.6436L3.1485-11.6436L9.6238-11.6436Q10.3960-9.1485 12.1188-7.7525Q13.8416-6.3564 16.1287-5.8218Q18.4158-5.2871 20.7327-5.2871L20.7327-5.2871Q22.9307-5.2871 24.8614-5.8812Q26.7921-6.4752 28.0396-7.8416Q29.2871-9.2079 29.2871-11.4059L29.2871-11.4059Q29.2871-13.0693 28.6337-14.1386Q27.9802-15.2079 26.8218-15.8911Q25.6634-16.5743 24.0594-16.9901L24.0594-16.9901Q22.2178-17.5842 20.1089-18Q18-18.4158 15.9505-18.9505Q13.9010-19.4851 12.1188-20.3168L12.1188-20.3168Q10.6337-20.9109 9.2376-21.7723Q7.8416-22.6337 6.8317-23.8515Q5.8218-25.0693 5.1980-26.7327Q4.5743-28.3960 4.5743-30.5347L4.5743-30.5347Q4.5743-33.3861 5.4950-35.4059Q6.4158-37.4257 7.9307-38.7921Q9.4455-40.1584 11.4356-40.9604Q13.4257-41.7624 15.6238-42.1188Q17.8218-42.4752 19.9010-42.4752L19.9010-42.4752Q23.7030-42.4752 26.9109-41.2871Q30.1188-40.0990 32.2277-37.5149Q34.3366-34.9307 34.5149-30.7129L34.5149-30.7129L28.3960-30.7129Q28.1584-32.9703 26.8812-34.3069Q25.6040-35.6436 23.7030-36.2079Q21.8020-36.7723 19.6634-36.7723L19.6634-36.7723Q18.1188-36.7723 16.5743-36.5050Q15.0297-36.2376 13.7525-35.5545Q12.4752-34.8713 11.7327-33.7426Q10.9901-32.6139 10.9901-30.9505L10.9901-30.9505Q10.9901-29.5248 11.5842-28.4257Q12.1782-27.3267 13.2772-26.5842Q14.3762-25.8416 15.7426-25.3069L15.7426-25.3069Q18.2376-24.3564 21.2079-23.8515Q24.1782-23.3465 26.7921-22.4554L26.7921-22.4554Q28.6931-21.8614 30.3564-21Q32.0198-20.1386 33.2079-18.9208Q34.3960-17.7030 35.0495-16.0693Q35.7030-14.4356 35.7030-12.2970L35.7030-12.2970Q35.7030-8.7921 34.4554-6.3267Q33.2079-3.8614 31.0693-2.3762Q28.9307-0.8911 26.1386-0.2079Q23.3465 0.4752 20.3168 0.4752ZM59.1089 0L55.8416 0Q52.1584 0 49.8416-1.0396Q47.5248-2.0792 46.4257-4.3366Q45.3267-6.5941 45.3267-10.2178L45.3267-10.2178L45.3267-25.8416L40.3960-25.8416L40.3960-31.3069L45.3267-31.3069L45.3267-40.3366L51.4455-40.3366L51.4455-31.3069L59.3465-31.3069L59.3465-25.8416L51.4455-25.8416L51.4455-10.9901Q51.4455-8.1980 52.4554-6.8020Q53.4653-5.4059 56.6733-5.4059L56.6733-5.4059L59.1089-5.4059L59.1089 0ZM70.6931 0L64.5743 0L64.5743-31.3069L70.6931-31.3069L70.6931 0ZM67.6040-35.4653L67.6040-35.4653Q65.8218-35.4653 64.7228-36.5644Q63.6238-37.6634 63.6238-39.3861L63.6238-39.3861Q63.6238-41.1089 64.7525-42.2079Q65.8812-43.3069 67.6040-43.3069L67.6040-43.3069Q69.2079-43.3069 70.4257-42.2079Q71.6436-41.1089 71.6436-39.3861L71.6436-39.3861Q71.6436-37.6634 70.4851-36.5644Q69.3267-35.4653 67.6040-35.4653ZM91.8416 0.3564L91.8416 0.3564Q86.9109 0.3564 83.6139-1.6634Q80.3168-3.6832 78.6832-7.2772Q77.0495-10.8713 77.0495-15.5644L77.0495-15.5644Q77.0495-20.1980 78.7426-23.8515Q80.4356-27.5050 83.8515-29.6139Q87.2673-31.7228 92.3168-31.7228L92.3168-31.7228Q95.7624-31.7228 98.4356-30.5644Q101.1089-29.4059 102.8020-27.1782Q104.4950-24.9505 105.0297-21.6238L105.0297-21.6238L98.9109-21.6238Q98.1386-24.0594 96.3267-25.1287Q94.5149-26.1980 92.0792-26.1980L92.0792-26.1980Q88.8119-26.1980 86.8812-24.6535Q84.9505-23.1089 84.0594-20.6733Q83.1683-18.2376 83.1683-15.5644L83.1683-15.5644Q83.1683-12.7723 84.0891-10.3960Q85.0099-8.0198 86.9406-6.5644Q88.8713-5.1089 92.0198-5.1089L92.0198-5.1089Q94.3960-5.1089 96.4158-6.1485Q98.4356-7.1881 99.0297-9.6832L99.0297-9.6832L105.3267-9.6832Q104.7921-6.2376 102.8317-4.0099Q100.8713-1.7822 97.9901-0.7129Q95.1089 0.3564 91.8416 0.3564ZM117.3861 0L111.2673 0L111.2673-42L117.3861-42L117.3861-18.2970L122.4356-18.2970L131.2277-31.3069L138.1188-31.3069L127.8416-16.3960L139.0099 0L131.8218 0L122.9109-12.8911L117.3861-12.8911L117.3861 0ZM156.7129 14.1386L156.7129 14.1386Q153.0891 14.1386 149.7030 13.1584Q146.3168 12.1782 143.5248 9.7426L143.5248 9.7426L145.9604 4.8713Q148.0990 6.5941 150.6832 7.6040Q153.2673 8.6139 156.1782 8.6139L156.1782 8.6139Q160.9901 8.6139 163.1287 6Q165.2673 3.3861 165.2673-0.8317L165.2673-0.8317L165.2673-3.8614Q164.1980-2.3762 162.6238-1.3960Q161.0495-0.4158 159.1485 0.0297Q157.2475 0.4752 155.2871 0.4752L155.2871 0.4752Q150.7129 0.4752 148.0099-1.3960Q145.3069-3.2673 144.1485-6.5347Q142.9901-9.8020 142.9901-14.0792L142.9901-14.0792L142.9901-31.3069L149.1683-31.3069L149.1683-15.5644Q149.1683-13.6634 149.4059-11.7624Q149.6436-9.8614 150.4158-8.3465Q151.1881-6.8317 152.6733-5.9109Q154.1584-4.9901 156.7129-4.9901L156.7129-4.9901Q159.9208-4.9901 161.7624-6.5644Q163.6040-8.1386 164.3762-10.7228Q165.1485-13.3069 165.1485-16.3366L165.1485-16.3366L165.1485-31.3069L171.2673-31.3069L171.2673-1.4851Q171.2673 2.1980 170.4059 5.1089Q169.5446 8.0198 167.7327 10.0396Q165.9208 12.0594 163.2178 13.0990Q160.5149 14.1386 156.7129 14.1386Z"/>
  <g transform="translate(12, 0)">
  <!-- "Note" — Onest Medium 500, warm amber-orange -->
  <path fill="#F59E0B" d="M186.2376 0L179.9406 0L179.9406-42L187.2475-42L208.3366-9.2079L208.3366-42L214.5743-42L214.5743 0L207.4455 0L186.2376-32.6139L186.2376 0ZM237.2079 0.3564L237.2079 0.3564Q232.3366 0.3564 228.9505-1.6337Q225.5644-3.6238 223.8119-7.2475Q222.0594-10.8713 222.0594-15.6238L222.0594-15.6238Q222.0594-20.4356 223.8416-24.0297Q225.6238-27.6238 229.0099-29.6733Q232.3960-31.7228 237.2673-31.7228L237.2673-31.7228Q242.1386-31.7228 245.5248-29.6733Q248.9109-27.6238 250.6337-24Q252.3564-20.3762 252.3564-15.5644L252.3564-15.5644Q252.3564-10.8713 250.6040-7.2475Q248.8515-3.6238 245.4950-1.6337Q242.1386 0.3564 237.2079 0.3564ZM237.2079-5.1089L237.2079-5.1089Q240.4158-5.1089 242.4059-6.5347Q244.3960-7.9604 245.3465-10.3663Q246.2970-12.7723 246.2970-15.6238L246.2970-15.6238Q246.2970-18.4752 245.3465-20.8515Q244.3960-23.2277 242.4059-24.6832Q240.4158-26.1386 237.2079-26.1386L237.2079-26.1386Q234.0594-26.1386 232.0396-24.6832Q230.0198-23.2277 229.0990-20.8515Q228.1782-18.4752 228.1782-15.6238L228.1782-15.6238Q228.1782-12.7129 229.0990-10.3366Q230.0198-7.9604 232.0396-6.5347Q234.0594-5.1089 237.2079-5.1089ZM275.1089 0L271.8416 0Q268.1584 0 265.8416-1.0396Q263.5248-2.0792 262.4257-4.3366Q261.3267-6.5941 261.3267-10.2178L261.3267-10.2178L261.3267-25.8416L256.3960-25.8416L256.3960-31.3069L261.3267-31.3069L261.3267-40.3366L267.4455-40.3366L267.4455-31.3069L275.3465-31.3069L275.3465-25.8416L267.4455-25.8416L267.4455-10.9901Q267.4455-8.1980 268.4554-6.8020Q269.4653-5.4059 272.6733-5.4059L272.6733-5.4059L275.1089-5.4059L275.1089 0ZM294.3564 0.3564L294.3564 0.3564Q289.4257 0.3564 286.0990-1.6634Q282.7723-3.6832 281.0792-7.2772Q279.3861-10.8713 279.3861-15.5644L279.3861-15.5644Q279.3861-20.3168 281.1386-23.9406Q282.8911-27.5644 286.2475-29.6436Q289.6040-31.7228 294.3564-31.7228L294.3564-31.7228Q297.9802-31.7228 300.6535-30.3861Q303.3267-29.0495 305.0792-26.7921Q306.8317-24.5347 307.6634-21.7723Q308.4950-19.0099 308.3762-16.0396L308.3762-16.0396Q308.3762-15.3861 308.3168-14.7921Q308.2574-14.1980 308.1980-13.5446L308.1980-13.5446L285.5644-13.5446Q285.7426-11.1683 286.7822-9.2079Q287.8218-7.2475 289.7228-6.0891Q291.6238-4.9307 294.4158-4.9307L294.4158-4.9307Q295.9604-4.9307 297.4158-5.3168Q298.8713-5.7030 300.0297-6.5644Q301.1881-7.4257 301.6634-8.7921L301.6634-8.7921L307.8416-8.7921Q307.0693-5.6436 305.0792-3.5941Q303.0891-1.5446 300.2673-0.5941Q297.4455 0.3564 294.3564 0.3564ZM285.6832-18.4158L285.6832-18.4158L302.3168-18.4158Q302.2574-20.7327 301.2475-22.5446Q300.2376-24.3564 298.4554-25.3960Q296.6733-26.4356 294.1782-26.4356L294.1782-26.4356Q291.4455-26.4356 289.6337-25.3069Q287.8218-24.1782 286.8416-22.3663Q285.8614-20.5545 285.6832-18.4158Z"/>
  <!-- Z icon with gradient fills (scaled 1.15x, nudged down for visual balance) -->
  <g transform="translate(329, -14.5) scale(0.92) translate(-488.1350, -215.8500)" filter="url(#dropShadow)">
    <path fill="url(#sh16)" d="M 478.9950 203.8776 C 477.7900 205.0775 476.3801 206.0895 474.7470 206.8980 L 466.8304 197.1238 L 499.1732 197.1238 L 508.3191 207.1998 C 504.0697 207.2733 499.7597 207.3711 495.7889 207.3336 C 487.4941 207.2554 480.6802 206.5878 478.9950 203.8776"/>
    <path fill="url(#sh19)" d="M 508.3191 207.1996 C 500.1386 207.2659 478.9556 207.7943 474.7473 206.8977 C 476.3801 206.0895 480.4466 202.2661 481.5422 200.0024 C 482.4927 203.4360 500.0244 207.1216 508.3191 207.1996"/>
    <path fill="url(#sh22)" d="M 478.5712 233.4042 C 488.6235 230.7197 498.9472 231.5452 509.4417 234.5791 C 507.7049 231.1132 505.4814 225.1845 503.7446 221.7183 C 502.0356 220.6715 498.5294 220.1409 495.2256 219.9847 C 490.9961 225.1752 486.3617 230.3821 479.0024 233.2383 C 478.8618 233.2942 478.7184 233.3497 478.5712 233.4042"/>
    <path fill="url(#sh25)" d="M 508.3191 207.1998 C 497.2609 213.0911 493.3366 227.9390 478.5712 233.4042 C 476.2145 229.1156 473.8575 224.8268 471.5005 220.5383 C 477.4178 218.4293 482.1355 212.4417 486.9292 207.4136 L 486.9516 207.4136 C 490.3807 207.4207 494.0974 207.3858 497.5790 207.3419 C 501.0381 207.3424 504.7007 207.2625 508.3191 207.1998"/>
  </g>
  </g>
</svg>