<?xml version="1.0" encoding="UTF-8"?>
<svg xmlns="http://www.w3.org/2000/svg" xml:space="preserve" version="1.1" style="shape-rendering:geometricPrecision; text-rendering:geometricPrecision; image-rendering:optimizeQuality; fill-rule:evenodd; clip-rule:evenodd"
viewBox="248 228 856 122">
 <defs>
  <style type="text/css">
   <![CDATA[
    .fil1 {fill:white;fill-rule:nonzero}
    .fil2 {fill:white;fill-rule:nonzero}
   ]]>
  </style>
 </defs>
 <g id="Layer_x0020_1">
  <g id="_2934527014144">
   <path class="fil1" d="M682 345l-32 0 -8 -8c-8,7 -18,10 -28,10 -10,0 -18,-3 -25,-9 -7,-6 -10,-13 -10,-22 0,-3 1,-7 2,-10 1,-3 2,-5 4,-7 1,-2 2,-3 4,-4 -5,-6 -8,-13 -8,-22 0,-18 15,-33 33,-33 18,0 33,15 33,33 0,10 -4,18 -10,24l7 8 14 -16 17 14 -16 18 23 24zm-53 -20l-6 -38c3,-2 6,-7 6,-12 0,-8 -7,-14 -15,-14 -8,0 -15,6 -15,14 0,5 3,10 6,12l-6 38 30 0z"/>
   <path class="fil2" d="M252 242l0 102 51 0 0 -14 -35 0 0 -88 -16 0zm163 51c0,-31 -23,-52 -52,-52 -29,0 -52,21 -52,52 0,30 23,52 52,52 29,0 52,-22 52,-52zm-87 0c0,-23 15,-38 35,-38 20,0 35,15 35,38 0,23 -15,37 -35,37 -20,0 -35,-14 -35,-37zm149 -52c-28,0 -52,21 -52,52 0,30 24,52 52,52 28,0 47,-20 51,-44l0 -13 -56 0 0 13 38 0c-3,17 -14,29 -33,29 -20,0 -34,-15 -34,-37 0,-23 14,-37 34,-37 12,0 22,5 27,15l20 0c-7,-19 -26,-30 -47,-30z"/>
   <path class="fil2" d="M729 242l0 102 51 0 0 -14 -35 0 0 -88 -16 0zm163 51c0,-31 -23,-52 -52,-52 -29,0 -52,21 -52,52 0,30 23,52 52,52 29,0 52,-22 52,-52zm-87 0c0,-23 15,-38 35,-38 20,0 35,15 35,38 0,23 -15,37 -35,37 -20,0 -35,-14 -35,-37zm98 0c0,30 23,52 51,52 22,0 40,-11 48,-31l-20 0c-6,11 -15,16 -28,16 -20,0 -34,-14 -34,-37 0,-23 14,-38 34,-38 13,0 22,6 28,16l20 0c-8,-19 -26,-30 -48,-30 -28,0 -51,21 -51,52zm174 51l22 0 -45 -51 44 -51 -21 0 -39 46 0 -46 -17 0 0 102 17 0 0 -46 39 46z"/>
  </g>
 </g>
</svg>
