<svg xmlns="http://www.w3.org/2000/svg" viewBox="462 193 52 46" fill="none" stroke="black" stroke-width="1.8" stroke-linejoin="round" stroke-linecap="round">
  <path d="M 478.9950 203.8776 C 477.7900 205.0775 476.3801 206.0895 474.7470 206.8980 L 466.8304 197.1238 L 499.1732 197.1238 L 508.3191 207.1998 C 504.0697 207.2733 499.7597 207.3711 495.7889 207.3336 C 487.4941 207.2554 480.6802 206.5878 478.9950 203.8776"/>
  <path d="M 508.3191 207.1996 C 500.1386 207.2659 478.9556 207.7943 474.7473 206.8977 C 476.3801 206.0895 480.4466 202.2661 481.5422 200.0024 C 482.4927 203.4360 500.0244 207.1216 508.3191 207.1996"/>
  <path d="M 478.5712 233.4042 C 488.6235 230.7197 498.9472 231.5452 509.4417 234.5791 C 507.7049 231.1132 505.4814 225.1845 503.7446 221.7183 C 502.0356 220.6715 498.5294 220.1409 495.2256 219.9847 C 490.9961 225.1752 486.3617 230.3821 479.0024 233.2383 C 478.8618 233.2942 478.7184 233.3497 478.5712 233.4042"/>
  <path d="M 508.3191 207.1998 C 497.2609 213.0911 493.3366 227.9390 478.5712 233.4042 C 476.2145 229.1156 473.8575 224.8268 471.5005 220.5383 C 477.4178 218.4293 482.1355 212.4417 486.9292 207.4136 L 486.9516 207.4136 C 490.3807 207.4207 494.0974 207.3858 497.5790 207.3419 C 501.0381 207.3424 504.7007 207.2625 508.3191 207.1998"/>
</svg>